<svg xmlns="http://www.w3.org/2000/svg" xmlns:xlink="http://www.w3.org/1999/xlink" width="114.834" height="26" viewBox="0 0 114.834 26">
  <defs>
    <linearGradient id="linear-gradient" x1="0.5" x2="0.5" y2="1" gradientUnits="objectBoundingBox">
      <stop offset="0" stop-color="#9732fc"></stop>
      <stop offset="0.18" stop-color="#9732fc"></stop>
      <stop offset="0.862" stop-color="#fc4c4c"></stop>
      <stop offset="1" stop-color="#fc4c4c"></stop>
    </linearGradient>
  </defs>
  <g id="bi" transform="translate(-284 -1094)">
    <rect id="사각형_6997" data-name="사각형 6997" width="16" height="16" transform="translate(289 1099)" fill="#fff"></rect>
    <path id="합치기_1" data-name="합치기 1" d="M60,18.538V12.353H56.064v6.186H53.63V12.353H49.7V10.416H66.451v1.937H62.434v6.186ZM20.2,17.517a3.044,3.044,0,0,1-1.665-2.707A3.077,3.077,0,0,1,20.2,12.06a8.909,8.909,0,0,1,4.642-1.021,9.257,9.257,0,0,1,4.728,1.021,3.074,3.074,0,0,1,1.664,2.751,3.041,3.041,0,0,1-1.664,2.707,9.23,9.23,0,0,1-4.728,1.021A8.963,8.963,0,0,1,20.2,17.517Zm1.833-4.042a1.478,1.478,0,0,0-1.021,1.335A1.43,1.43,0,0,0,22.033,16.1a6.733,6.733,0,0,0,2.809.479q3.875,0,3.874-1.77Q28.716,13,24.842,13A6.733,6.733,0,0,0,22.033,13.476Zm13.716,4.937V13.748h9.888v-1H35.749V10.832h12.3v4.623H38.208v1H48.615v1.958Zm33.035-.353V12.853H71.2v3.29H81.479v1.916Zm-66.808,0V12.122H4.434v4.021H14.779v1.916Zm9.991-4.6V0h2.416V13.455Zm54.691-1.581V9.937h7.12v-1.6H68.326V6.395h2.539l-.458-2.874,2.329-.353.419,3.228h3.7l.479-3.228,2.372.353-.563,2.874h2.542V8.332H76.213v1.6h7.2v1.937ZM32.752,8.937q3.829-1.084,4.165-4.084H33.336V2.979H43.1V4.853H39.5q.374,2.69,3.953,3.458l-.562.937c-.25.416-.444.73-.582.937a6.026,6.026,0,0,1-4.061-2.958,6.236,6.236,0,0,1-4.267,3.6Zm-4.078,1.9V8.311H26.029v-1.9h2.645v-2H26.029v-1.9h2.645V0h2.414V10.832ZM0,10.164V1.4H8.806v8.767ZM2.413,8.248h4V3.293h-4ZM45.637,9.958V7.332H42.87v-1.9h2.767V0h2.416V9.958ZM16.371,9.79V1.063H18.8v2.6h3.874V1.021h2.415V9.79ZM18.8,7.874h3.874V5.563H18.8Zm34.449.063a3.358,3.358,0,0,1,0-5.937A8.881,8.881,0,0,1,58.044.856,8.912,8.912,0,0,1,62.851,2a3.356,3.356,0,0,1,0,5.937,8.888,8.888,0,0,1-4.807,1.147A8.857,8.857,0,0,1,53.254,7.937Zm1.811-4.521a1.773,1.773,0,0,0-1.081,1.542A1.773,1.773,0,0,0,55.064,6.5a6.139,6.139,0,0,0,2.979.626A6.2,6.2,0,0,0,61.021,6.5,1.771,1.771,0,0,0,62.1,4.958a1.771,1.771,0,0,0-1.081-1.542,7.636,7.636,0,0,0-5.956,0Zm13.2-.791V.709H81.731V2.626ZM35.543,2.1V.251h5.371V2.1Z" transform="translate(315.417 1097.791)" fill="#555"></path>
    <path id="패스_6" data-name="패스 6" d="M20.8,0H5.2A5.215,5.215,0,0,0,0,5.2V20.8A5.215,5.215,0,0,0,5.2,26H20.8A5.215,5.215,0,0,0,26,20.8V5.2A5.215,5.215,0,0,0,20.8,0ZM15.285,19.24H10.4A3.64,3.64,0,0,1,6.76,15.6V8.32a1.56,1.56,0,0,1,3.12,0v6.5a1.3,1.3,0,0,0,1.3,1.3h3.64a1.291,1.291,0,0,0,.556-.129,2.847,2.847,0,0,0-.091,3.249Zm.835-4.42V8.32a1.56,1.56,0,0,1,3.12,0v6.965a2.848,2.848,0,0,0-3.249.091A1.289,1.289,0,0,0,16.12,14.82Zm3.38,4.42H17.68a1.56,1.56,0,1,1,1.56-1.56h.26a.78.78,0,1,1,0,1.56Z" transform="translate(284 1094)" fill="url(#linear-gradient)"></path>
  </g>
</svg>